# xmcd
#
# Track frame offsets:
#	150
#	13498
#	26526
#	37527
#	49143
#	61919
#	73444
#	87210
#	98876
#	112923
#
# Disc length: 1643
#
# Revision: 1
# Processed by: cddbd v1.5.1PL0 Copyright (c) Steve Scherf et al.
# Submitted via: CDex 1.51
# Normalized: r0:TRMNUM
#
DISCID=7d06690a
DTITLE=Ray Charles - Midnight Blues
DYEAR=2000
DGENRE=Blues
TTITLE0=Alone in the City
TTITLE1=Baby won't you please come home
TTITLE2=A Sentimental Blues
TTITLE3=Guitar Blues
TTITLE4=You always Miss the water when the well runs dry
TTITLE5=If I guve you my love
TTITLE6=This love of mine
TTITLE7=Tell me baby
TTITLE8=I'm giving up
TTITLE9=Ain't that fine
EXTD=YEAR: 2000
EXTT0=
EXTT1=
EXTT2=
EXTT3=
EXTT4=
EXTT5=
EXTT6=
EXTT7=
EXTT8=
EXTT9=
PLAYORDER=
